<?xml version="1.0" standalone="no"?>
<!DOCTYPE svg PUBLIC "-//W3C//DTD SVG 20010904//EN"
 "http://www.w3.org/TR/2001/REC-SVG-20010904/DTD/svg10.dtd">
<svg version="1.0" xmlns="http://www.w3.org/2000/svg"
 width="1152.000000pt" height="1152.000000pt" viewBox="0 0 1152.000000 1152.000000"
 preserveAspectRatio="xMidYMid meet">
<metadata>
Created by potrace 1.14, written by Peter Selinger 2001-2017
</metadata>
<g transform="translate(0.000000,1152.000000) scale(0.100000,-0.100000)"
fill="#000000" stroke="none">
<path d="M4819 11515 c-2 -2 -33 -6 -69 -9 -113 -10 -180 -19 -245 -31 -16 -3
-52 -10 -80 -15 -74 -14 -90 -17 -179 -40 -84 -22 -256 -75 -291 -90 -11 -4
-56 -23 -100 -40 -44 -18 -111 -47 -150 -65 -38 -18 -74 -33 -80 -34 -5 -2
-16 -7 -23 -13 -17 -15 -113 -68 -134 -75 -10 -3 -18 -9 -18 -14 0 -5 -3 -8
-7 -7 -17 5 -298 -190 -408 -283 -121 -103 -289 -267 -365 -358 -25 -30 -50
-59 -55 -65 -29 -31 -180 -239 -177 -244 2 -2 0 -8 -5 -11 -23 -16 -140 -216
-205 -352 -41 -83 -126 -285 -133 -314 -1 -5 -5 -17 -8 -25 -7 -16 -56 -175
-62 -200 -2 -8 -12 -53 -24 -100 -11 -47 -23 -102 -26 -124 -4 -21 -9 -48 -11
-60 -2 -11 -7 -43 -10 -71 -4 -27 -8 -52 -9 -55 -10 -17 -20 -201 -19 -365 1
-199 8 -284 34 -385 5 -19 11 -48 13 -65 3 -16 15 -66 27 -110 12 -44 24 -87
25 -95 2 -8 4 -15 5 -15 1 0 3 -7 5 -15 2 -8 14 -42 25 -75 12 -33 23 -64 24
-70 4 -20 61 -163 119 -300 71 -169 321 -673 357 -720 4 -5 21 -35 37 -65 17
-30 39 -71 50 -90 11 -19 40 -69 64 -110 23 -41 45 -77 48 -80 6 -5 21 -31 45
-75 6 -11 20 -33 30 -48 l19 -28 -122 -120 c-67 -65 -120 -119 -117 -119 2 0
-15 -20 -39 -44 -24 -25 -56 -62 -71 -82 -16 -21 -38 -48 -49 -60 -11 -12 -24
-28 -30 -36 -5 -7 -23 -31 -40 -53 -16 -22 -33 -41 -37 -43 -4 -2 -8 -10 -8
-18 0 -8 -4 -14 -10 -14 -5 0 -10 -6 -10 -14 0 -7 -7 -19 -15 -26 -8 -7 -30
-37 -47 -67 -18 -30 -42 -69 -52 -87 -27 -45 -120 -235 -135 -276 -7 -19 -17
-44 -21 -55 -10 -25 -21 -58 -22 -65 0 -3 -5 -18 -12 -35 -7 -16 -13 -32 -14
-35 0 -3 -3 -12 -5 -20 -10 -29 -37 -149 -43 -186 -3 -20 -8 -46 -10 -58 -26
-117 -24 -532 2 -661 2 -11 6 -35 9 -54 2 -18 7 -41 9 -50 3 -9 7 -27 10 -41
14 -73 52 -216 65 -245 5 -11 24 -63 42 -115 18 -52 39 -108 46 -123 8 -16 16
-36 18 -45 4 -21 99 -241 132 -307 13 -27 24 -51 23 -53 -2 -6 138 -284 207
-410 114 -206 331 -550 384 -608 11 -11 19 -24 19 -29 0 -4 7 -15 15 -24 8 -9
52 -63 96 -121 98 -128 264 -323 354 -416 36 -38 83 -87 104 -109 67 -70 208
-200 339 -313 15 -12 36 -31 47 -41 11 -10 58 -47 105 -82 47 -34 87 -67 88
-71 2 -4 10 -8 18 -8 8 0 14 -4 14 -8 0 -5 12 -15 27 -23 16 -8 37 -22 47 -31
11 -10 25 -18 32 -18 7 0 14 -4 16 -9 3 -9 253 -161 264 -161 3 0 18 -9 32
-19 15 -10 30 -19 34 -20 4 -1 52 -22 105 -47 54 -25 107 -49 118 -54 11 -4
41 -17 66 -28 39 -18 215 -80 244 -87 6 -1 17 -5 25 -8 33 -13 283 -76 326
-82 11 -2 47 -8 80 -15 32 -7 69 -12 82 -12 12 0 22 -3 22 -7 0 -3 12 -6 28
-7 15 0 52 -3 82 -7 236 -31 650 -28 774 4 21 6 40 8 43 5 3 -3 18 1 34 10 16
8 31 14 34 14 3 -1 22 2 43 7 20 4 39 8 42 8 12 2 57 17 75 25 11 4 61 22 110
40 50 18 110 43 135 55 25 13 52 26 60 29 47 19 256 141 278 162 6 7 21 16 32
19 11 3 20 11 20 16 0 5 6 9 14 9 8 0 16 4 18 8 2 4 32 30 68 57 87 66 87 66
121 97 16 16 32 28 34 28 14 0 276 258 370 364 33 37 65 73 70 79 6 7 47 57
90 112 43 55 84 103 89 107 6 4 7 8 3 8 -5 0 8 20 27 44 20 23 36 48 36 54 0
6 4 12 8 14 30 12 287 441 397 663 21 44 43 82 47 83 4 2 8 8 8 13 0 6 14 40
31 77 17 37 46 99 64 137 33 71 46 102 84 190 12 28 26 59 31 70 17 40 113
280 115 290 1 6 5 18 8 28 30 78 87 242 91 257 2 8 16 52 31 98 15 46 28 89
29 95 2 7 6 19 9 27 3 8 11 35 18 60 7 25 14 50 15 55 37 134 109 432 120 495
4 20 11 57 19 90 1 3 5 30 10 60 9 59 11 67 15 75 1 3 3 13 4 23 1 9 6 40 11
67 4 28 9 59 10 70 2 11 5 39 9 62 9 58 15 99 22 163 3 30 8 69 10 85 2 17 6
57 9 90 3 33 7 85 10 115 20 209 27 832 12 1030 -15 208 -18 236 -22 265 -2
17 -4 30 -5 30 -1 0 -3 18 -5 40 -1 22 -8 69 -14 105 -6 36 -13 81 -15 100
-12 80 -47 233 -77 330 -26 87 -80 223 -92 231 -5 3 -7 8 -5 10 3 4 -50 115
-65 134 -4 6 -28 42 -54 80 -58 87 -53 80 -105 140 -73 86 -211 215 -228 215
-5 0 -10 4 -12 9 -7 18 -177 124 -283 175 -94 46 -271 113 -316 119 -8 2 -18
5 -24 8 -12 7 -142 32 -151 29 -14 -4 -22 24 -13 49 4 14 10 40 13 56 3 17 7
39 9 50 20 88 31 427 15 458 -5 10 -5 17 0 17 6 0 6 18 2 43 -4 23 -11 76 -15
117 -6 76 -10 109 -18 145 -3 11 -8 40 -12 65 -4 25 -9 54 -12 65 -3 11 -6 29
-8 40 -16 93 -75 282 -142 459 -75 195 -272 561 -345 640 -10 11 -18 23 -18
27 0 4 -6 14 -12 21 -7 7 -32 38 -54 68 -23 30 -51 66 -64 80 -12 14 -39 46
-60 71 -39 45 -220 231 -220 226 0 -2 -26 21 -57 50 -59 55 -271 221 -310 241
-12 7 -27 18 -35 24 -7 7 -30 22 -50 33 -21 11 -38 23 -38 26 0 4 -17 14 -37
23 -46 20 -75 37 -97 55 -9 7 -16 10 -16 6 0 -5 -8 -2 -17 7 -28 23 -201 104
-338 158 -63 24 -202 73 -215 75 -10 1 -105 27 -120 33 -8 3 -26 7 -40 9 -14
2 -36 8 -50 12 -22 8 -56 15 -175 36 -16 2 -39 7 -50 9 -11 2 -47 7 -80 10
-33 4 -73 9 -90 12 -37 6 -521 14 -526 9z"/>
</g>
</svg>
