<svg xmlns="http://www.w3.org/2000/svg" xmlns:xlink="http://www.w3.org/1999/xlink" width="974" height="520"><defs><path id="a" d="M0 0h974v520H0z"/></defs><g fill="none" fill-rule="evenodd"><mask id="b" fill="#fff"><use xlink:href="#a"/></mask><use fill="#92BED8" xlink:href="#a"/><path fill="#D8C5BE" d="M201 19.86c0 72.354-81.36 163.205-125.094 221.354-28.868 38.381-70.566 38.381-96.227 0C-61.134 180.168-139 92.214-139 19.859-139-73.399-62.888-149 31-149c93.89 0 170 75.6 170 168.86z" style="mix-blend-mode:color-burn" mask="url(#b)"/><path fill="#FFB9A3" d="M-26 188.14c0-52.818 43.356-115.494 83.783-168.11l3.315-4.3 3.296-4.254 3.272-4.204 3.24-4.15 12.548-16.028 3.004-3.85 1.478-1.9 2.905-3.749c2.87-3.713 5.63-7.32 8.253-10.809 28.868-38.381 70.566-38.381 96.227 0 5.305 7.936 11.237 16.327 17.543 25.08L215.8-4.07l1.486 2.05 4.523 6.225 7.711 10.596 3.13 4.311 3.146 4.349C273.634 75.863 314 136.045 314 188.14 314 281.399 237.888 357 144 357c-93.89 0-170-75.6-170-168.86z" mask="url(#b)" opacity=".319" style="mix-blend-mode:color-burn"/><path fill="#DEC6BE" d="M732 18.86c0 72.354-81.36 163.205-125.094 221.354-28.868 38.381-70.566 38.381-96.227 0C469.866 179.168 392 91.214 392 18.859 392-74.399 468.112-150 562-150c93.89 0 170 75.6 170 168.86z" style="mix-blend-mode:color-burn" mask="url(#b)"/><path fill="#FFB9A3" d="M680 239.86c0 72.354-81.36 163.205-125.094 221.354-28.868 38.381-70.566 38.381-96.227 0C417.866 400.168 340 312.214 340 239.859 340 146.601 416.112 71 510 71c93.89 0 170 75.6 170 168.86z" mask="url(#b)" opacity=".316" style="mix-blend-mode:color-burn"/></g></svg>