<svg xmlns="http://www.w3.org/2000/svg" xmlns:xlink="http://www.w3.org/1999/xlink" width="974" height="520"><defs><path id="a" d="M0 0h974v520H0z"/></defs><g fill="none" fill-rule="evenodd"><mask id="b" fill="#fff"><use xlink:href="#a"/></mask><use fill="#FFB342" xlink:href="#a"/><path fill="#FFBD5C" d="M517.467 96c49.036.469 89.163 16.424 124.126 45.543 37.1 30.904 63.87 69.47 82.025 114.048 6.202 15.24 9.406 31.211 8.09 47.708-1.537 19.189-9.158 36.095-20.861 51.218-14.79 19.145-33.369 34.019-53.747 46.655-45.95 28.505-95.22 49.36-147.723 62.377-23.772 5.894-47.939 9.346-72.5 8.249-18.857-.849-37.143-4.432-53.644-14.26-19.867-11.817-31.599-29.704-36.397-51.89-2.532-11.672-3.966-23.722-4.505-35.672-2.884-64.438 13.18-124.374 44.646-180.3 15.784-28.067 35.855-52.651 62.583-71.24 15.58-10.839 32.651-18.208 51.435-21.208a69.297 69.297 0 013.223-.43l1.065-.11c.176-.018.352-.034.528-.05l1.047-.09 1.03-.078 1.011-.068.989-.058.961-.05 1.386-.063 3.635-.145 1-.05.597-.036z" mask="url(#b)" opacity=".289" style="mix-blend-mode:color-burn"/><path fill="#FFD28F" d="M436.942 612c-62.615-.596-113.855-20.88-158.5-57.897-47.372-39.289-81.557-88.317-104.738-144.988-7.92-19.374-12.012-39.678-10.33-60.65 1.96-24.394 11.693-45.886 26.637-65.112 18.886-24.339 42.61-43.247 68.63-59.311 58.674-36.238 121.589-62.75 188.631-79.299 30.355-7.493 61.215-11.88 92.579-10.486 24.077 1.079 47.428 5.634 68.497 18.128 25.369 15.023 40.35 37.762 46.477 65.967 3.233 14.838 5.064 30.157 5.753 45.348 3.682 81.92-16.83 158.115-57.01 229.212-20.156 35.68-45.784 66.934-79.913 90.567-19.895 13.778-41.694 23.146-65.68 26.96-8.237 1.3-16.68 1.265-21.033 1.561z" mask="url(#b)" opacity=".289" style="mix-blend-mode:color-burn"/><path fill="#B56C00" d="M82.058 234c62.615-.599 113.855-20.967 158.5-58.14 47.372-39.452 81.557-88.686 104.738-145.594 7.92-19.455 12.012-39.843 10.33-60.904-1.96-24.495-11.693-46.078-26.637-65.384-18.886-24.44-42.61-43.428-68.63-59.56-58.674-36.388-121.589-63.013-188.631-79.63-30.355-7.524-61.215-11.93-92.579-10.53-24.077 1.083-47.428 5.657-68.497 18.204-25.369 15.086-40.35 37.92-46.477 66.243-3.233 14.9-5.064 30.283-5.753 45.538-3.682 82.262 16.83 158.776 57.01 230.17a360.573 360.573 0 001.829 3.213l1.236 2.128c19.675 33.61 44.425 63.06 76.848 85.605 19.895 13.836 41.694 23.244 65.68 27.074.748.118 1.499.226 2.248.323l1.122.14.56.064 1.113.12 1.106.106 1.095.095 1.082.085 1.066.075 1.565.097 1.515.081 1.46.068 5.465.222 1.017.052.619.039z" mask="url(#b)" opacity=".289" style="mix-blend-mode:color-burn"/><path fill="#FF9F0F" d="M20.811 181.064c-38.226-22.559-62.466-53.214-76.707-91.84C-71.003 48.234-74.55 5.916-68.627-37.209c2.028-14.742 6.738-28.699 15.229-41.022 9.88-14.332 23.497-24.122 39.509-30.668 20.249-8.3 41.537-11.54 63.224-12.212 48.906-1.528 96.956 4.438 143.997 18.006 21.298 6.142 41.803 14.377 60.56 26.352l1.434.926c13.806 9.015 25.96 19.859 34.168 34.517 10.23 18.246 11.34 37.562 5.069 57.108-3.292 10.286-7.617 20.372-12.597 29.973-26.873 51.768-66.564 91.435-116.515 120.99-25.063 14.836-51.91 25.005-81.266 27.466-17.113 1.437-33.827-.518-49.907-6.67a70.076 70.076 0 01-4.864-2.102l-.92-.442a106.36 106.36 0 01-.451-.22l-.883-.44-.854-.435-1.223-.632-2.852-1.499-.889-.458-.53-.265z" mask="url(#b)" opacity=".289" style="mix-blend-mode:color-burn"/></g></svg>