<svg xmlns="http://www.w3.org/2000/svg" xmlns:xlink="http://www.w3.org/1999/xlink" width="974" height="520"><defs><filter id="b" width="102.7%" height="105%" x="-1.3%" y="-2.1%" filterUnits="objectBoundingBox"><feOffset dy="2" in="SourceAlpha" result="shadowOffsetOuter1"/><feGaussianBlur in="shadowOffsetOuter1" result="shadowBlurOuter1" stdDeviation="4"/><feColorMatrix in="shadowBlurOuter1" values="0 0 0 0 0 0 0 0 0 0 0 0 0 0 0 0 0 0 0.04 0"/></filter><path id="a" d="M0 0h974v520H0z"/></defs><g fill="none" fill-rule="evenodd"><mask id="c" fill="#fff"><use xlink:href="#a"/></mask><use fill="#000" filter="url(#b)" xlink:href="#a"/><use fill="#FFBA94" xlink:href="#a"/><path fill="#BB9D8C" d="M-60.084-209.198c-49.527-41.558-123.366-35.098-164.924 14.428l-259.604 309.384c-41.559 49.528-35.098 123.366 14.43 164.924l89.676 75.247c49.527 41.558 123.364 35.1 164.923-14.429l109.11-130.03 130.03 109.108c49.528 41.56 123.366 35.098 164.924-14.429l75.247-89.676c41.558-49.527 35.1-123.365-14.429-164.924L-60.084-209.198z" mask="url(#c)" opacity=".442" style="mix-blend-mode:color-burn"/><path fill="#BB9D8C" d="M-1.007-119.146c-32.449-27.228-80.826-22.995-108.054 9.454l-170.085 202.7c-27.228 32.449-22.995 80.825 9.454 108.053l58.753 49.3c32.449 27.227 80.825 22.996 108.054-9.454l71.485-85.192L53.792 227.2c32.45 27.228 80.826 22.995 108.054-9.454l49.3-58.753c27.228-32.449 22.996-80.825-9.454-108.054l-202.7-170.085z" mask="url(#c)" opacity=".568" style="mix-blend-mode:color-burn"/><path fill="#BB9D8C" d="M868.166 450.188c45.463-38.136 51.393-105.896 13.245-151.345L643.106 14.93c-38.15-45.45-105.93-51.378-151.393-13.241l-82.32 69.052C363.93 108.88 358 176.637 396.15 222.088l100.157 119.325-119.363 100.126c-45.465 38.137-51.394 105.896-13.245 151.345l69.074 82.293c38.148 45.45 105.928 51.379 151.393 13.241l284-238.23z" mask="url(#c)" opacity=".386" style="mix-blend-mode:color-burn"/><path fill="#BB9D8C" d="M899.166 355.188c45.463-38.136 51.393-105.896 13.245-151.345L674.106-80.07c-38.15-45.45-105.93-51.378-151.393-13.241l-82.32 69.052C394.93 13.88 389 81.637 427.15 127.088l100.157 119.325-119.363 100.126c-45.465 38.137-51.394 105.896-13.245 151.345l69.074 82.293c38.148 45.45 105.928 51.379 151.393 13.241l284-238.23z" mask="url(#c)" opacity=".386" style="mix-blend-mode:color-burn"/></g></svg>